<?xml version="1.0" encoding="iso-8859-1"?>
<!-- Generator: Adobe Illustrator 19.0.0, SVG Export Plug-In . SVG Version: 6.00 Build 0)  -->
<svg version="1.1" id="Layer_1" xmlns="http://www.w3.org/2000/svg" xmlns:xlink="http://www.w3.org/1999/xlink" x="0px" y="0px"
	 viewBox="0 0 508 508" style="fill: #606060;enable-background:new 0 0 508 508;" xml:space="preserve">
<g>
	<g>
		<path d="M452.348,416.6h-7.9c-24.8-31.6-38.5-70.7-38.5-110.9v-88.6c0-69.9-47.5-128.8-111.9-146.4c4.2-7,6.7-15.2,6.7-24
			c0-25.7-20.9-46.7-46.7-46.7s-46.7,21-46.7,46.7c0,8.8,2.5,17,6.7,24c-64.4,17.6-111.9,76.5-111.9,146.4v88.6
			c0,40.3-13.7,79.3-38.5,110.9h-7.8c-7.8,0-14.1,6.3-14.1,14.1s6.3,14.1,14.1,14.1h122.2c6.7,35.9,38.2,63.2,75.9,63.2
			c37.8,0,69.3-27.3,75.9-63.2h107.5h14.8c7.8,0,14.1-6.3,14.1-14.1C466.448,422.9,460.048,416.6,452.348,416.6z M254.048,28.2
			c10.2,0,18.5,8.3,18.5,18.5s-8.3,18.5-18.5,18.5c-10.2,0-18.5-8.3-18.5-18.5S243.848,28.2,254.048,28.2z M254.048,479.8
			c-22.2,0-40.9-14.8-47-35h94C294.948,465,276.248,479.8,254.048,479.8z M98.348,416.6c20.8-33,32.1-71.5,32.1-110.9v-88.6
			c0-68.2,55.5-123.7,123.7-123.7c68.2,0,123.7,55.5,123.7,123.7v88.6c0,39.4,11.2,77.9,32,110.9H98.348z"/>
	</g>
</g>
<g>
</g>
<g>
</g>
<g>
</g>
<g>
</g>
<g>
</g>
<g>
</g>
<g>
</g>
<g>
</g>
<g>
</g>
<g>
</g>
<g>
</g>
<g>
</g>
<g>
</g>
<g>
</g>
<g>
</g>
</svg>
