<?xml version="1.0" encoding="iso-8859-1"?>
<!-- Generator: Adobe Illustrator 19.0.0, SVG Export Plug-In . SVG Version: 6.00 Build 0)  -->
<svg version="1.1" id="Capa_1" xmlns="http://www.w3.org/2000/svg" xmlns:xlink="http://www.w3.org/1999/xlink" x="0px" y="0px"
	 viewBox="0 0 474.475 474.475" style="fill: #606060; enable-background:new 0 0 474.475 474.475;" xml:space="preserve">
<g>
	<g>
		<g>
			<g>
				<path d="M284.138,54.475c2.2-14.4-2.3-29.5-13.3-40.6c-18.5-18.5-48.5-18.5-66.9,0c-11,11-15.5,26.2-13.3,40.5
					c14.5-5.7,30.2-8.9,46.7-8.9S269.638,48.675,284.138,54.475z"/>
			</g>
			<path d="M404.738,413.075L404.738,413.075c-38.8-50.1-59.5-111.4-59.5-175v-65.5c0-59.5-48.6-108-108-108l0,0
				c-59.5,0-108,48.2-108,108v65.5c0,63.2-21.1,125-59.5,175l0,0H404.738z"/>
			<g>
				<path d="M382.938,173.275c-5.3,0-9.4-4.1-9.4-9.4c0-37.3-17.7-72.3-48.9-96c-4.1-3.4-4.9-9-1.9-13.6c3.4-4.1,9.4-4.9,13.5-1.9
					c35.8,27.5,56.5,68.1,56.5,111C392.338,169.175,388.138,173.275,382.938,173.275z"/>
			</g>
			<g>
				<path d="M91.538,173.275c-5.3,0-9.4-4.1-9.4-9.4c0-43.3,20.7-83.6,56.5-111c4.1-3.4,10.2-2.3,13.6,1.9s2.3,10.2-1.9,13.6
					c-31.2,23.7-48.9,58.7-48.9,96C101.338,169.175,96.838,173.275,91.538,173.275z"/>
			</g>
			<path d="M179.238,432.275c7.9,24.5,30.9,42.2,58,42.2s50.1-17.7,58-42.2H179.238z"/>
		</g>
	</g>
</g>
<g>
</g>
<g>
</g>
<g>
</g>
<g>
</g>
<g>
</g>
<g>
</g>
<g>
</g>
<g>
</g>
<g>
</g>
<g>
</g>
<g>
</g>
<g>
</g>
<g>
</g>
<g>
</g>
<g>
</g>
</svg>
